<svg width="16" height="17" viewBox="0 0 16 17" fill="none" xmlns="http://www.w3.org/2000/svg">
<path d="M9.81586 5.80396H11.6317C12.0292 5.80396 12.4227 5.87225 12.7899 6.00495C13.1571 6.13764 13.4907 6.33214 13.7717 6.57733C14.0528 6.82252 14.2757 7.1136 14.4278 7.43395C14.5799 7.75431 14.6582 8.09766 14.6582 8.44441C14.6582 8.79116 14.5799 9.13451 14.4278 9.45487C14.2757 9.77522 14.0528 10.0663 13.7717 10.3115C13.4907 10.5567 13.1571 10.7512 12.7899 10.8839C12.4227 11.0166 12.0292 11.0849 11.6317 11.0849H9.81586M6.18412 11.0849H4.36825C3.97081 11.0849 3.57726 11.0166 3.21007 10.8839C2.84289 10.7512 2.50926 10.5567 2.22822 10.3115C1.66065 9.81631 1.3418 9.1447 1.3418 8.44441C1.3418 7.74412 1.66065 7.07251 2.22822 6.57733C2.79579 6.08215 3.56558 5.80396 4.36825 5.80396H6.18412" stroke="#5E6A86" stroke-width="1.1" stroke-linecap="round" stroke-linejoin="round"/>
<path d="M5.8877 8.44434H10.1124" stroke="#5E6A86" stroke-width="1.1" stroke-linecap="round" stroke-linejoin="round"/>
</svg>
