<svg width="16" height="17" viewBox="0 0 16 17" fill="none" xmlns="http://www.w3.org/2000/svg">
<path d="M0.825745 9.5934V2.69336C0.825745 1.58879 1.72118 0.693359 2.82574 0.693359H13.421C14.5255 0.693359 15.421 1.58879 15.421 2.69336L15.421 9.90172V14.054C15.421 15.1586 14.5255 16.054 13.421 16.054L7.78273 16.054H6.95417" stroke="#457EFF" stroke-linecap="round"/>
<path d="M0.965456 12.4717L0.965454 15.9988L4.49265 15.9988M5.07688 8.36023L8.60407 8.36023L8.60407 11.8874M1.47528 15.489L8.36939 8.59492" stroke="#457EFF" stroke-linecap="round"/>
<path d="M15.2462 4.88495C15.5223 4.88495 15.7462 4.66109 15.7462 4.38495C15.7462 4.10881 15.5223 3.88495 15.2462 3.88495L15.2462 4.88495ZM0.682648 4.88495L15.2462 4.88495L15.2462 3.88495L0.682648 3.88495L0.682648 4.88495Z" fill="#457EFF"/>
</svg>
