<svg width="16" height="16" viewBox="0 0 16 16" fill="none" xmlns="http://www.w3.org/2000/svg">
<path fill-rule="evenodd" clip-rule="evenodd" d="M12.2709 4.35143C12.4428 4.1796 12.4428 3.90101 12.2709 3.72918C12.0991 3.55735 11.8205 3.55735 11.6487 3.72918L8 7.37785L4.35133 3.72918C4.1795 3.55735 3.90091 3.55735 3.72907 3.72918C3.55724 3.90101 3.55724 4.1796 3.72907 4.35143L7.37775 8.0001L3.72908 11.6488C3.55724 11.8206 3.55724 12.0992 3.72907 12.271C3.90091 12.4429 4.1795 12.4429 4.35133 12.271L8 8.62236L11.6487 12.271C11.8205 12.4429 12.0991 12.4429 12.2709 12.271C12.4428 12.0992 12.4428 11.8206 12.2709 11.6488L8.62225 8.0001L12.2709 4.35143Z" fill="#5E6A86"/>
</svg>
