<svg width="21" height="23" viewBox="0 0 21 23" fill="none" xmlns="http://www.w3.org/2000/svg">
<path d="M9.78723 0.911746C10.0966 0.733113 10.4778 0.733113 10.7872 0.911746L19.0326 5.67222C19.342 5.85086 19.5326 6.18098 19.5326 6.53825V16.0592C19.5326 16.4165 19.342 16.7466 19.0326 16.9252L10.7872 21.6857C10.4778 21.8643 10.0966 21.8643 9.78723 21.6857L1.54184 16.9252C1.23244 16.7466 1.04184 16.4165 1.04184 16.0592V6.53825C1.04184 6.18098 1.23244 5.85086 1.54184 5.67222L9.78723 0.911746Z" stroke="#457EFF" stroke-linecap="round"/>
<path d="M11.4199 6.84212L8.84814 15.7227" stroke="#457EFF" stroke-linecap="round"/>
<path d="M7.31567 14.5226L4.02307 11.2967L7.31567 8.0708" stroke="#457EFF" stroke-linecap="round"/>
<path d="M13.0326 14.5226L16.3252 11.2967L13.0326 8.0708" stroke="#457EFF" stroke-linecap="round"/>
</svg>
