<svg width="12" height="12" viewBox="0 0 12 12" fill="none" xmlns="http://www.w3.org/2000/svg">
<path opacity="0.5" fill-rule="evenodd" clip-rule="evenodd" d="M6.00005 1.26959C3.38749 1.26959 1.26959 3.38749 1.26959 6.00005C1.26959 8.61261 3.38749 10.7305 6.00005 10.7305C8.61261 10.7305 10.7305 8.61261 10.7305 6.00005C10.7305 3.38749 8.61261 1.26959 6.00005 1.26959ZM0.573975 6.00005C0.573975 3.00331 3.00331 0.573975 6.00005 0.573975C8.99678 0.573975 11.4261 3.00331 11.4261 6.00005C11.4261 8.99678 8.99678 11.4261 6.00005 11.4261C3.00331 11.4261 0.573975 8.99678 0.573975 6.00005Z" fill="#96A2BE"/>
<path opacity="0.5" fill-rule="evenodd" clip-rule="evenodd" d="M5.56055 3.82978C5.56055 3.58872 5.75596 3.39331 5.99702 3.39331H6.00312C6.24417 3.39331 6.43959 3.58872 6.43959 3.82978C6.43959 4.07084 6.24417 4.26625 6.00312 4.26625H5.99702C5.75596 4.26625 5.56055 4.07084 5.56055 3.82978Z" fill="#96A2BE"/>
<path opacity="0.5" fill-rule="evenodd" clip-rule="evenodd" d="M6.00011 4.92993C6.2155 4.92993 6.39011 5.10454 6.39011 5.31993V8.53574C6.39011 8.75113 6.2155 8.92574 6.00011 8.92574C5.78472 8.92574 5.61011 8.75113 5.61011 8.53574V5.31993C5.61011 5.10454 5.78472 4.92993 6.00011 4.92993Z" fill="#96A2BE"/>
</svg>
