<svg fill="none" height="12" viewBox="0 0 12 12" width="12" xmlns="http://www.w3.org/2000/svg"><g clip-rule="evenodd" fill="#457eff" fill-rule="evenodd"><path d="m.665039 2.66398c0-.18225.147746-.33.33-.33h10.009861c.1823 0 .33.14775.33.33 0 .18226-.1477.33-.33.33h-10.009861c-.182254 0-.33-.14774-.33-.33z"/><path d="m4.88786.769375c-.20745 0-.40641.082411-.5531.229103s-.2291.345652-.2291.553102v.78221h3.78883v-.78221c0-.20745-.08242-.40641-.22911-.553102s-.34565-.229103-.5531-.229103zm3.66663 1.564415v-.78221c0-.38249-.15195-.749326-.42242-1.019792-.27046-.270467-.63729-.422413-1.01979-.422413h-2.22442c-.38249 0-.74933.151946-1.01979.422413-.27047.270466-.42241.637302-.42241 1.019792v.78221h-1.33832c-.18225 0-.33.14775-.33.33v7.78541c0 .3825.15195.7494.42242 1.0198.27046.2705.63729.4225 1.01979.4225h5.56104c.3825 0 .74933-.152 1.01979-.4225.27052-.2704.42242-.6373.42242-1.0198v-7.78541c0-.18225-.1477-.33-.33-.33zm-6.11715.66v7.45541c0 .2075.08241.4065.22911.5531.14669.1467.34565.2291.5531.2291h5.56104c.20745 0 .40641-.0824.5531-.2291.1467-.1466.22911-.3456.22911-.5531v-7.45541z"/><path d="m4.88762 5.11328c.18225 0 .33.14775.33.33v3.33662c0 .18226-.14775.33-.33.33-.18226 0-.33-.14774-.33-.33v-3.33662c0-.18225.14774-.33.33-.33z"/><path d="m7.11223 5.11328c.18225 0 .33.14775.33.33v3.33662c0 .18226-.14775.33-.33.33-.18226 0-.33-.14774-.33-.33v-3.33662c0-.18225.14774-.33.33-.33z"/></g></svg>