<svg width="20" height="20" viewBox="0 0 20 20" fill="none" xmlns="http://www.w3.org/2000/svg">
<path d="M16.9095 5.19933V3.22559C16.9095 2.12102 16.014 1.22559 14.9095 1.22559H2.85864C1.75407 1.22559 0.858643 2.12102 0.858643 3.22559V15.3725C0.858643 16.4771 1.75407 17.3725 2.85864 17.3725H2.93941" stroke="#457EFF" stroke-linecap="round"/>
<path d="M19.4049 10.7898C19.3288 11.1861 19.167 11.5631 18.9298 11.8968C18.6927 12.2305 18.3853 12.5136 18.0272 12.7282C17.6691 12.9428 17.2681 13.0843 16.8495 13.1435C16.431 13.2028 16.0042 13.1786 15.596 13.0725C14.8887 12.8894 14.0757 12.8541 13.5159 13.3039L7.67929 17.9932C7.49505 18.1418 7.28018 18.252 7.0485 18.3168C6.81682 18.3815 6.57348 18.3993 6.33413 18.3691C6.09479 18.3389 5.86474 18.2613 5.65879 18.1412C5.45285 18.0212 5.27557 17.8615 5.13838 17.6723C5.00118 17.483 4.90711 17.2686 4.8622 17.0427C4.8173 16.8167 4.82257 16.5844 4.87766 16.3605C4.93276 16.1366 5.03647 15.9262 5.18211 15.7428C5.32775 15.5594 5.51209 15.4071 5.72328 15.2957L12.3955 11.7588C13.0355 11.4196 13.2889 10.683 13.3596 9.98827C13.4103 9.48333 13.5988 8.9998 13.9064 8.58566C14.2139 8.17153 14.6299 7.84118 15.1129 7.6274C15.5959 7.41362 16.1292 7.32385 16.6599 7.36698C17.1906 7.41012 17.7003 7.58467 18.1383 7.87331L15.5506 9.57505C15.5682 9.93831 15.6926 10.2896 15.9096 10.5888C16.1265 10.888 16.4274 11.1232 16.7779 11.2676L19.3655 9.56585C19.4674 9.9549 19.4856 10.3701 19.4049 10.7898Z" stroke="#457EFF" stroke-linecap="round" stroke-linejoin="round"/>
<path d="M14.7546 19.7448L14.083 18.4452C13.9727 18.2317 13.7891 18.065 13.5659 17.9758L12.0581 17.3729L13.5659 16.77C13.7891 16.6808 13.9727 16.5141 14.083 16.3006L14.7546 15.001L15.4262 16.3006C15.5365 16.5141 15.7201 16.6808 15.9433 16.77L17.4511 17.3729L15.9433 17.9758C15.7201 18.065 15.5365 18.2317 15.4262 18.4452L14.7546 19.7448Z" fill="#457EFF"/>
<path d="M9.50311 9.94825L8.96385 8.90468C8.8535 8.69112 8.66991 8.52446 8.44671 8.43522L7.22998 7.94873L8.44671 7.46225C8.66991 7.373 8.8535 7.20635 8.96385 6.99279L9.50311 5.94922L10.0424 6.99279C10.1527 7.20635 10.3363 7.373 10.5595 7.46225L11.7762 7.94873L10.5595 8.43522C10.3363 8.52446 10.1527 8.69112 10.0424 8.90468L9.50311 9.94825Z" fill="#457EFF"/>
</svg>
