<svg width="22" height="19" viewBox="0 0 22 19" fill="none" xmlns="http://www.w3.org/2000/svg">
<path fill-rule="evenodd" clip-rule="evenodd" d="M9.6441 5.3812C9.53369 5.9638 8.90438 9.24557 8.77508 9.91477C8.64579 10.584 9.19993 11.1838 9.74398 11.1838C10.288 11.1838 10.3599 11.1838 10.5832 11.1838C10.8066 11.1838 11.139 11.3401 11.0139 11.909C10.8887 12.478 10.7593 13.0633 10.6321 13.6162C10.5049 14.1691 11.1424 14.392 11.4188 13.961C11.6952 13.53 13.7588 10.2403 13.9963 9.7979C14.2338 9.35549 13.8448 8.67136 13.2593 8.67136C12.6738 8.67136 12.4315 8.67136 12.1244 8.67136C11.8173 8.67136 11.7742 8.45298 11.8857 8.0031C11.9971 7.55323 12.1312 6.96476 12.3384 6.10235C12.5456 5.23993 11.7105 4.77148 11.2705 4.77148C10.8305 4.77148 10.3574 4.77148 10.2269 4.77148C10.0965 4.77148 9.7545 4.7986 9.6441 5.3812Z" fill="#457EFF"/>
<path d="M19.5622 9.47872C19.5622 13.9667 15.9408 17.6049 11.4736 17.6049C8.17336 17.6049 5.33476 15.6192 4.07691 12.7722M3.38501 9.47872C3.38501 4.99076 7.00639 1.35254 11.4736 1.35254C14.8209 1.35254 17.6932 3.39519 18.9231 6.30742" stroke="#457EFF" stroke-linecap="round"/>
<path d="M1.25684 8.06738L3.35482 10.1751L5.45281 8.06738" stroke="#457EFF" stroke-linecap="round"/>
<path d="M21.4504 10.4277L19.5621 8.53063L17.6738 10.4277" stroke="#457EFF" stroke-linecap="round"/>
</svg>
