<svg width="20" height="19" viewBox="0 0 20 19" fill="none" xmlns="http://www.w3.org/2000/svg">
<path d="M9.13477 6.58496H10.6864C11.791 6.58496 12.6864 7.48039 12.6864 8.58496V12.0685" stroke="#457EFF"/>
<rect x="5.6355" y="12.1729" width="13.632" height="5.81783" rx="2.90892" stroke="#457EFF" stroke-linecap="round"/>
<rect x="0.500732" y="1.26855" width="8.50252" height="9.00517" rx="1.5" stroke="#457EFF" stroke-linecap="round"/>
<path d="M6.39531 5.77126C6.39531 6.67885 5.65956 7.41459 4.75197 7.41459C3.84439 7.41459 3.10864 6.67885 3.10864 5.77126C3.10864 4.86367 3.84439 4.12793 4.75197 4.12793C5.65956 4.12793 6.39531 4.86367 6.39531 5.77126Z" stroke="#457EFF" stroke-linecap="round"/>
<path d="M2.60534 15.6633L2.40077 15.243C2.18947 14.8089 1.8283 14.466 1.38391 14.2773L0.9021 14.0728L1.38391 13.8683C1.8283 13.6797 2.18947 13.3367 2.40077 12.9027L2.60534 12.4824L2.80992 12.9027C3.02122 13.3367 3.38239 13.6797 3.82678 13.8683L4.30859 14.0728L3.82678 14.2773C3.38239 14.466 3.02122 14.8089 2.80992 15.243L2.60534 15.6633Z" fill="#457EFF"/>
<path d="M15.2619 7.91421L14.5475 6.44672C14.4419 6.22969 14.2613 6.05819 14.0391 5.96389L12.4517 5.29011L14.0391 4.61634C14.2613 4.52203 14.4419 4.35054 14.5475 4.1335L15.2619 2.66602L15.9763 4.1335C16.0819 4.35054 16.2625 4.52203 16.4847 4.61634L18.0722 5.29011L16.4847 5.96389C16.2625 6.05819 16.0819 6.22969 15.9763 6.44672L15.2619 7.91421Z" fill="#457EFF"/>
</svg>
